<svg width="43" height="43" viewBox="0 0 43 43" fill="none" xmlns="http://www.w3.org/2000/svg">
<g clip-path="url(#clip0_24_43)">
<path d="M40.3125 21.5C40.3125 25.2208 39.2092 28.858 37.142 31.9517C35.0749 35.0454 32.1368 37.4566 28.6992 38.8805C25.2617 40.3044 21.4791 40.6769 17.8299 39.951C14.1806 39.2251 10.8285 37.4334 8.19756 34.8024C5.56658 32.1715 3.77486 28.8194 3.04898 25.1701C2.32309 21.5209 2.69564 17.7383 4.11952 14.3008C5.54339 10.8632 7.95464 7.92512 11.0483 5.85798C14.142 3.79083 17.7792 2.6875 21.5 2.6875C26.4894 2.6875 31.2744 4.66953 34.8024 8.19755C38.3305 11.7256 40.3125 16.5106 40.3125 21.5ZM32.25 20.1562H15.9234L23.4216 12.6213L21.5 10.75L10.75 21.5L21.5 32.25L23.4216 30.3322L15.9234 22.8438H32.25V20.1562Z" fill="#FE770B"/>
</g>
<defs>
<clipPath id="clip0_24_43">
<rect width="43" height="43" fill="white" transform="matrix(-1 0 0 1 43 0)"/>
</clipPath>
</defs>
</svg>
