<svg width="34" height="34" viewBox="0 0 34 34" fill="none" xmlns="http://www.w3.org/2000/svg">
<path d="M1 11.6667H33M8.11111 1V4.55556M25.8889 1V4.55556M6.33333 17H9.88889M15.2222 17H18.7778M24.1111 17H27.6667M6.33333 22.3333H9.88889M15.2222 22.3333H18.7778M24.1111 22.3333H27.6667M6.33333 27.6667H9.88889M15.2222 27.6667H18.7778M24.1111 27.6667H27.6667M6.68889 33H27.3111C29.3024 33 30.2981 33 31.0587 32.6124C31.7276 32.2716 32.2716 31.7276 32.6124 31.0587C33 30.2981 33 29.3024 33 27.3111V10.2444C33 8.25314 33 7.25749 32.6124 6.49692C32.2716 5.82789 31.7276 5.28396 31.0587 4.94309C30.2981 4.55556 29.3024 4.55556 27.3111 4.55556H6.68889C4.6976 4.55556 3.70194 4.55556 2.94137 4.94309C2.27234 5.28396 1.72841 5.82789 1.38754 6.49692C1 7.25749 1 8.25314 1 10.2444V27.3111C1 29.3024 1 30.2981 1.38754 31.0587C1.72841 31.7276 2.27234 32.2716 2.94137 32.6124C3.70194 33 4.69758 33 6.68889 33Z" stroke="#FE770B" stroke-width="2" stroke-linecap="round"/>
</svg>
